<?xml version="1.0" encoding="utf-8"?>
<!-- Generator: Adobe Illustrator 28.0.0, SVG Export Plug-In . SVG Version: 6.00 Build 0)  -->
<svg version="1.1" id="Layer_2_00000163040849868231744880000010380306800906765467_"
	 xmlns="http://www.w3.org/2000/svg" xmlns:xlink="http://www.w3.org/1999/xlink" x="0px" y="0px" viewBox="0 0 477.8 329.7"
	 style="enable-background:new 0 0 477.8 329.7;" xml:space="preserve">
<style type="text/css">
	.st0{fill:none;stroke:#FFFFFF;stroke-width:1.44;stroke-linecap:round;stroke-linejoin:round;}
</style>
<g>
	<line class="st0" x1="149.7" y1="168.4" x2="251.9" y2="109.4"/>
	<polyline class="st0" points="152.9,170.3 251.9,113.1 251.9,109.4 	"/>
	<polyline class="st0" points="251.9,109.4 304.1,139.4 201.8,198.5 149.7,168.4 	"/>
	<line class="st0" x1="251.9" y1="113.1" x2="300.8" y2="141.3"/>
	<line class="st0" x1="96.6" y1="217.4" x2="124.6" y2="233.6"/>
	<path class="st0" d="M124.7,233.6c1.2,0.7,2.3,1,3.4,0.9"/>
	<path class="st0" d="M90.5,201.8c-1.2,1.8-1.1,4.9,0.1,8.1s3.6,6,6,7.4"/>
	<polyline class="st0" points="364.7,133.4 356.6,138 355.1,137.2 363.2,132.5 364.7,133.4 377.2,164.2 377.2,167.6 	"/>
	<polyline class="st0" points="356.6,138 369.2,168.8 369.2,172.2 355.1,164.1 355.1,137.2 	"/>
	<line class="st0" x1="377.2" y1="167.6" x2="369.2" y2="172.2"/>
	<line class="st0" x1="369.2" y1="168.8" x2="377.2" y2="164.2"/>
	<line class="st0" x1="431.3" y1="120.1" x2="422.3" y2="125.3"/>
	<polyline class="st0" points="425.8,140.1 417.8,144.7 403.3,136.3 373,153.8 	"/>
	<line class="st0" x1="355.1" y1="164.1" x2="318.8" y2="185"/>
	<polyline class="st0" points="323.1,198.8 315.1,203.5 301,195.4 264.7,216.3 	"/>
	<polyline class="st0" points="269,230.1 260.9,234.7 246.9,226.6 217.9,243.4 	"/>
	<polyline class="st0" points="221.3,258.2 213.3,262.8 198.8,254.4 186.2,261.7 	"/>
	<line class="st0" x1="156.7" y1="262.5" x2="130.7" y2="247.4"/>
	<polyline class="st0" points="130.7,243.7 81.7,215.5 78.5,217.4 46.4,198.8 	"/>
	<line class="st0" x1="46.4" y1="164.1" x2="32.4" y2="172.2"/>
	<polyline class="st0" points="467.4,116.5 467.4,124.7 186.8,286.8 154.7,286.8 10.4,203.5 10.4,194.1 	"/>
	<line class="st0" x1="446.6" y1="94.2" x2="431.3" y2="85.4"/>
	<polyline class="st0" points="323.1,198.8 323.1,195.5 315.1,200.1 315.1,203.5 	"/>
	<polyline class="st0" points="323.1,195.5 310.6,164.6 309.1,163.7 	"/>
	<polyline class="st0" points="310.6,164.6 302.5,169.3 315.1,200.1 	"/>
	<polyline class="st0" points="302.5,169.3 301,168.4 309.1,163.7 	"/>
	<line class="st0" x1="301" y1="195.4" x2="301" y2="168.4"/>
	<polyline class="st0" points="403.3,136.3 403.3,107.4 208.6,219.8 	"/>
	<polyline class="st0" points="246.9,226.6 246.9,199.6 254.9,195 	"/>
	<polyline class="st0" points="246.9,199.6 248.4,200.5 260.9,231.4 260.9,234.7 	"/>
	<polyline class="st0" points="269,230.1 269,226.7 260.9,231.4 	"/>
	<polyline class="st0" points="269,226.7 256.4,195.9 254.9,195 	"/>
	<line class="st0" x1="256.4" y1="195.9" x2="248.4" y2="200.5"/>
	<polyline class="st0" points="425.8,140.1 425.8,134.2 417.8,138.8 417.8,144.7 	"/>
	<polyline class="st0" points="425.8,134.2 408.8,91.3 281.4,17.7 	"/>
	<polyline class="st0" points="268.6,28.9 273.4,22.3 400.9,95.9 417.8,138.8 	"/>
	<polyline class="st0" points="403.3,107.4 399.2,97 275,25.2 	"/>
	<line class="st0" x1="273.4" y1="22.3" x2="281.4" y2="17.7"/>
	<line class="st0" x1="400.9" y1="95.9" x2="408.8" y2="91.3"/>
	<polyline class="st0" points="413,101.8 431.3,91.2 431.3,120.1 	"/>
	<polyline class="st0" points="408.9,91.4 425.6,81.7 431.3,91.2 	"/>
	<line class="st0" x1="399.2" y1="97" x2="204.5" y2="209.5"/>
	<polyline class="st0" points="284.7,19.6 301.4,10 312.7,10 425.6,75.2 425.6,81.7 	"/>
	<line class="st0" x1="80.2" y1="137.6" x2="275" y2="25.2"/>
	<polyline class="st0" points="76.9,135.7 204.4,209.3 221.3,252.2 221.3,258.2 	"/>
	<polyline class="st0" points="76.9,135.7 68.9,140.4 64.1,146.9 	"/>
	<polyline class="st0" points="204.4,209.3 196.4,214 68.9,140.4 	"/>
	<polyline class="st0" points="221.3,252.2 213.3,256.9 196.4,214 	"/>
	<line class="st0" x1="213.3" y1="262.8" x2="213.3" y2="256.9"/>
	<polyline class="st0" points="198.8,254.4 198.8,225.5 194.8,215 70.5,143.3 	"/>
	<polyline class="st0" points="178.7,256.7 178.7,237.1 198.8,225.5 	"/>
	<polyline class="st0" points="194.8,215 176.4,225.7 178.7,237.1 	"/>
	<polyline class="st0" points="176.4,225.7 165.1,225.7 52.1,160.4 52.1,153.9 70.5,143.3 	"/>
	<line class="st0" x1="52.1" y1="153.9" x2="46.4" y2="160.6"/>
	<polyline class="st0" points="425.6,75.2 431.3,81.9 431.3,91.2 	"/>
	<polyline class="st0" points="165.1,225.7 162.7,237.1 178.7,237.1 	"/>
	<polyline class="st0" points="52.1,160.4 46.4,169.9 162.7,237.1 	"/>
	<polyline class="st0" points="46.4,160.6 46.4,169.9 46.4,198.8 	"/>
	<line class="st0" x1="467.4" y1="124.7" x2="467.4" y2="134"/>
	<polyline class="st0" points="467.4,134 186.8,296 186.8,286.8 	"/>
	<polyline class="st0" points="154.7,286.8 154.7,296 186.8,296 	"/>
	<polyline class="st0" points="154.7,296 10.4,212.7 10.4,203.5 	"/>
	<line class="st0" x1="162.7" y1="237.1" x2="162.7" y2="257.5"/>
	<polyline class="st0" points="78.5,217.4 78.5,198.8 82.6,196.5 126.7,222 130.7,228.9 130.7,247.4 	"/>
	<line class="st0" x1="81.7" y1="215.5" x2="81.7" y2="197"/>
	<line class="st0" x1="93.8" y1="219" x2="121.9" y2="235.2"/>
	<path class="st0" d="M92.1,202c-3.4-1-5.7,1.5-5.3,5.8s3.4,9.1,7,11.2"/>
	<path class="st0" d="M121.9,235.2c3.6,2.1,6.5,0.7,7-3.1c0.4-3.8-1.8-8.9-5.3-11.9"/>
	<line class="st0" x1="150.7" y1="310" x2="136.7" y2="294.9"/>
	<polyline class="st0" points="154.7,307.4 154.7,307.6 150.7,310 142.7,305.3 128.6,290.3 	"/>
	<polyline class="st0" points="467.4,143.3 186.8,305.3 154.7,305.3 10.4,222 	"/>
	<line class="st0" x1="104.6" y1="283.3" x2="90.5" y2="268.3"/>
	<polyline class="st0" points="108.6,278.7 108.6,281 104.6,283.3 96.6,278.7 82.6,263.6 	"/>
	<line class="st0" x1="62.5" y1="252.1" x2="62.5" y2="254.4"/>
	<polyline class="st0" points="62.5,254.4 58.5,256.7 44.5,241.7 	"/>
	<line class="st0" x1="50.5" y1="252.1" x2="36.4" y2="237.1"/>
	<line class="st0" x1="34.4" y1="242.8" x2="34.4" y2="235.9"/>
	<line class="st0" x1="158.7" y1="314.6" x2="150.7" y2="310"/>
	<line class="st0" x1="142.7" y1="305.3" x2="104.6" y2="283.3"/>
	<line class="st0" x1="96.6" y1="278.7" x2="58.5" y2="256.7"/>
	<line class="st0" x1="50.5" y1="252.1" x2="34.4" y2="242.8"/>
	<line class="st0" x1="158.7" y1="313.9" x2="158.7" y2="314.6"/>
	<line class="st0" x1="58.5" y1="256.7" x2="50.5" y2="252.1"/>
	<polyline class="st0" points="271,256.7 271,263.6 182.8,314.6 182.8,313.1 	"/>
	<path class="st0" d="M90,202.6c0.4-0.2,0.9-0.5,1.3-0.8"/>
	<line class="st0" x1="92.6" y1="202.3" x2="89.6" y2="204"/>
	<polyline class="st0" points="158.7,314.6 161,320.6 40.1,250.7 34.4,242.8 	"/>
	<line class="st0" x1="182.8" y1="314.6" x2="180.2" y2="314.6"/>
	<line class="st0" x1="160.6" y1="314.6" x2="158.7" y2="314.6"/>
	<polyline class="st0" points="161,320.6 180.4,320.6 182.8,314.6 	"/>
	<polyline class="st0" points="180.4,320.6 265.3,271.6 271,263.6 	"/>
	<polyline class="st0" points="467.4,134 186.8,296 154.7,296 10.4,212.7 10.4,222 	"/>
	<line class="st0" x1="154.7" y1="296" x2="154.7" y2="305.3"/>
	<line class="st0" x1="186.8" y1="305.3" x2="186.8" y2="296"/>
	<line class="st0" x1="467.4" y1="134" x2="467.4" y2="143.3"/>
	<path class="st0" d="M15.6,198.9c5.5,3.2,14.3,3.2,19.8,0"/>
	<path class="st0" d="M10,191.9c0,5,7,9,15.6,9s15.6-4,15.6-9"/>
	<path class="st0" d="M35.4,185c5.5-3.2,5.5-8.3,0-11.5s-14.3-3.2-19.8,0s-5.5,8.3,0,11.5S30,188.2,35.4,185"/>
	<path class="st0" d="M14.5,174.1c-6.1,3.5-6.1,9.2,0,12.8s15.9,3.5,22,0s6.1-9.2,0-12.8"/>
	<polyline class="st0" points="33.4,180.5 33.2,180.7 33.1,180.9 32.9,181.1 32.7,181.3 32.6,181.4 32.4,181.6 32.2,181.7 
		32.1,181.9 31.9,182 31.8,182.2 31.6,182.3 31.5,182.4 31.3,182.5 31.2,182.6 31,182.8 30.9,182.8 	"/>
	<path class="st0" d="M27.6,183.8c2.8-0.4,5-1.7,5.8-3.3"/>
	<path class="st0" d="M33.4,180.5c0.8-1.6,0-3.4-2.1-4.6"/>
	<path class="st0" d="M19.7,182.6c2.1,1.2,5.1,1.6,7.9,1.2"/>
	<path class="st0" d="M17.6,178c-0.8,1.6,0,3.4,2.1,4.6"/>
	<path class="st0" d="M23.4,174.7c-2.8,0.4-5,1.7-5.8,3.3"/>
	<path class="st0" d="M31.3,175.9c-2.1-1.2-5.1-1.6-7.9-1.2"/>
	<polyline class="st0" points="33.4,180.5 33.4,180.5 33.2,180.4 33.2,180.4 33.1,180.3 33.1,180.2 33,180.2 32.9,180.1 32.9,180 
		32.8,179.9 32.7,179.8 32.6,179.7 32.6,179.6 32.5,179.5 32.5,179.4 32.4,179.3 32.3,179.1 32.3,179 32.2,178.9 32.2,178.7 
		32.1,178.6 32,178.4 32,178.2 31.9,178 31.9,177.8 31.8,177.7 31.7,177.4 31.7,177.2 31.6,177 31.5,176.8 31.4,176.5 31.4,176.2 
		31.3,175.9 31,176 30.7,176.1 30.5,176.2 30.2,176.2 29.9,176.2 29.7,176.3 29.5,176.3 29.2,176.3 29,176.3 28.7,176.3 28.5,176.3 
		28.3,176.3 28,176.3 27.8,176.3 27.6,176.3 27.4,176.2 27.1,176.2 26.9,176.2 26.6,176.1 26.4,176 26.2,176 26,175.9 25.7,175.8 
		25.5,175.7 25.3,175.6 25,175.5 24.7,175.4 24.5,175.3 24.2,175.1 23.9,175 23.7,174.9 23.4,174.7 23.2,175 23,175.2 22.8,175.4 
		22.6,175.6 22.4,175.8 22.2,176 22,176.1 21.8,176.3 21.7,176.5 21.5,176.6 21.4,176.7 21.2,176.8 21,176.9 20.8,177.1 20.6,177.2 
		20.5,177.3 20.3,177.4 20.2,177.5 20,177.5 19.8,177.6 19.7,177.7 19.5,177.8 19.3,177.8 19.1,177.8 19,177.9 18.8,178 18.6,178 
		18.4,178 18.2,178 18,178.1 17.8,178.1 17.6,178.1 17.7,178.3 17.8,178.6 17.8,178.9 17.9,179.1 17.9,179.3 18.1,179.5 18.1,179.8 
		18.2,179.9 18.2,180.1 18.3,180.3 18.4,180.5 18.4,180.7 18.5,180.8 18.5,181 18.6,181.1 18.7,181.3 18.7,181.4 18.8,181.5 
		18.8,181.6 18.9,181.7 19,181.8 19,181.9 19.1,182 19.1,182.1 19.2,182.2 19.3,182.3 19.4,182.3 19.4,182.4 19.5,182.5 19.6,182.5 
		19.6,182.6 19.7,182.6 	"/>
	<polyline class="st0" points="26.9,184 23.4,183.4 22.8,183.7 	"/>
	<line class="st0" x1="31.3" y1="182.6" x2="31.3" y2="175.9"/>
	<line class="st0" x1="23.4" y1="183.4" x2="23.4" y2="174.7"/>
	<line class="st0" x1="15.6" y1="198.9" x2="14.5" y2="198.2"/>
	<line class="st0" x1="35.5" y1="198.9" x2="36.5" y2="198.2"/>
	<line class="st0" x1="35.5" y1="173.6" x2="36.5" y2="174.2"/>
	<line class="st0" x1="15.6" y1="173.6" x2="14.5" y2="174.2"/>
	<line class="st0" x1="41.1" y1="180.5" x2="41.1" y2="191.9"/>
	<line class="st0" x1="9.9" y1="180.5" x2="9.9" y2="191.9"/>
	<polyline class="st0" points="10.4,210.2 10.1,210.4 9.9,210.7 9.6,210.9 9.4,211.1 	"/>
	<polyline class="st0" points="9.1,211.6 9.3,211.7 9.5,212 9.7,212.2 9.8,212.5 10,212.7 10.1,212.9 10.3,213.1 10.4,213.4 	"/>
	<polyline class="st0" points="9.1,220.6 9.3,221 9.5,221.5 9.6,221.9 9.8,222.4 9.9,222.8 10,223.1 10.2,223.5 10.3,223.9 
		10.4,224.2 10.6,224.6 10.7,224.9 10.9,225.2 11,225.5 11.1,225.8 11.2,226.1 11.3,226.4 11.5,226.7 11.6,226.9 11.8,227.2 
		11.9,227.5 12,227.7 12.1,227.9 12.3,228.2 12.4,228.4 12.5,228.7 12.7,228.8 12.8,229.1 13,229.3 13.1,229.5 13.3,229.7 
		13.4,229.9 13.6,230.2 	"/>
	<polyline class="st0" points="14.1,230.5 14.7,230.7 15.3,230.9 15.8,231.1 16.4,231.3 16.9,231.4 17.5,231.6 17.9,231.8 
		18.5,231.9 19,232 19.4,232.2 20,232.3 20.5,232.4 20.9,232.5 21.4,232.6 21.9,232.7 22.4,232.7 22.8,232.8 23.2,232.9 23.7,232.9 
		24.1,233 24.5,233 25,233 25.4,233.1 25.9,233.1 26.3,233.1 26.8,233.2 27.2,233.2 27.7,233.2 28.1,233.2 28.6,233.1 29.1,233.1 
		29.6,233.1 	"/>
	<polyline class="st0" points="9.4,211.1 9.3,211.2 9.2,211.3 9.2,211.3 9.1,211.4 9.1,211.4 9.1,211.5 9.1,211.6 	"/>
	<polyline class="st0" points="9.1,220.6 9.1,220.5 9.1,220.4 	"/>
	<polyline class="st0" points="14.1,230.5 14,230.4 13.9,230.4 13.9,230.3 13.8,230.3 13.7,230.2 13.7,230.2 13.6,230.2 13.6,230.2 
			"/>
	<line class="st0" x1="9.1" y1="211.4" x2="9.1" y2="220.4"/>
	<path class="st0" d="M318.3,13.1c-1.2-1.2-3-2.2-5.1-2.9"/>
	<path class="st0" d="M312.3,9.9c-3.7-1.1-8.1-1.1-11.9-0.1s-6.6,2.9-7.8,5.2"/>
	<path class="st0" d="M295.1,12.1c-1.8,1-3.1,2.3-3.8,3.7"/>
	<path class="st0" d="M319.5,13.8c-0.7-0.6-1.5-1.2-2.4-1.8"/>
	<line class="st0" x1="316" y1="11.5" x2="317.2" y2="12.1"/>
	<line class="st0" x1="296.2" y1="11.5" x2="295.1" y2="12.1"/>
	<path class="st0" d="M161.8,283.3c5.5,3.2,14.3,3.2,19.8,0"/>
	<path class="st0" d="M156.1,276.3c0,5,7,9,15.6,9s15.6-4,15.6-9"/>
	<path class="st0" d="M161.8,257.9c-5.5,3.2-5.5,8.3,0,11.5c5.5,3.2,14.3,3.2,19.8,0s5.5-8.3,0-11.5S167.2,254.8,161.8,257.9"/>
	<path class="st0" d="M160.7,258.5c-6.1,3.5-6.1,9.2,0,12.8s15.9,3.5,22,0s6.1-9.2,0-12.8"/>
	<polyline class="st0" points="169.6,259.1 169.3,259.4 169.1,259.6 169,259.8 168.7,260 168.5,260.2 168.4,260.3 168.2,260.5 
		168,260.7 167.8,260.8 167.6,261 167.5,261.1 167.3,261.2 167.2,261.4 167,261.5 166.8,261.6 166.6,261.7 166.5,261.8 166.3,261.8 
		166.1,262 166,262 165.8,262.1 165.6,262.1 165.5,262.2 165.3,262.3 165.1,262.3 164.9,262.3 164.8,262.4 164.5,262.4 164.3,262.4 
		164.2,262.4 164,262.4 163.7,262.4 	"/>
	<path class="st0" d="M169.6,259.1c-2.8,0.4-5,1.7-5.8,3.3"/>
	<path class="st0" d="M177.5,260.3c-2.1-1.2-5.1-1.6-7.9-1.2"/>
	<path class="st0" d="M179.6,264.9c0.8-1.6-0.1-3.4-2.1-4.5"/>
	<path class="st0" d="M173.8,268.2c2.8-0.4,5-1.7,5.8-3.3"/>
	<path class="st0" d="M165.9,267c2.1,1.2,5.1,1.6,7.9,1.2"/>
	<path class="st0" d="M163.8,262.5c-0.8,1.6,0.1,3.4,2.1,4.5"/>
	<polyline class="st0" points="177.4,260.3 177.5,260.6 177.6,260.9 177.7,261.1 177.7,261.4 177.8,261.6 177.8,261.8 178,262 
		178,262.3 178.1,262.4 178.1,262.6 178.2,262.8 178.3,262.9 178.3,263.1 178.4,263.2 178.4,263.4 178.5,263.5 178.6,263.6 
		178.6,263.8 178.7,263.9 178.7,264 178.8,264.1 178.9,264.2 178.9,264.3 179,264.4 179,264.5 179.1,264.5 179.2,264.6 179.3,264.7 
		179.3,264.8 179.4,264.8 179.5,264.8 179.6,264.9 179.4,265.1 179.2,265.3 179,265.5 178.9,265.7 178.7,265.9 178.6,266 
		178.4,266.2 178.2,266.3 178.1,266.5 177.9,266.6 177.8,266.7 177.6,266.8 177.5,266.9 177.3,267.1 177.2,267.1 177.1,267.2 	"/>
	<polyline class="st0" points="165.8,267 165.8,267 165.7,266.9 165.7,266.9 165.6,266.8 165.5,266.8 165.4,266.6 165.4,266.6 
		165.3,266.5 165.2,266.4 165.2,266.3 165.1,266.2 165.1,266.1 165,266 164.9,265.9 164.9,265.7 164.8,265.6 164.8,265.5 
		164.7,265.4 164.6,265.2 164.6,265.1 164.5,264.9 164.5,264.7 164.4,264.5 164.3,264.4 164.2,264.2 164.2,263.9 164.1,263.7 
		164,263.5 164,263.3 163.9,263 163.8,262.7 163.7,262.4 	"/>
	<polyline class="st0" points="169.6,259.1 169.8,259.3 170.1,259.4 170.3,259.6 170.6,259.7 170.9,259.8 171.1,259.9 171.4,260 
		171.6,260.1 171.8,260.2 172.1,260.3 172.3,260.3 172.6,260.5 172.8,260.5 173,260.5 173.3,260.6 173.5,260.6 173.7,260.6 
		173.9,260.7 174.2,260.7 174.4,260.7 174.7,260.7 174.9,260.7 175.1,260.7 175.4,260.7 175.6,260.7 175.9,260.6 176.1,260.6 
		176.3,260.6 176.6,260.5 176.9,260.5 177.2,260.4 177.4,260.3 	"/>
	<polyline class="st0" points="169,268.1 169.6,267.8 173,268.3 	"/>
	<line class="st0" x1="177.4" y1="266.9" x2="177.4" y2="260.3"/>
	<line class="st0" x1="169.6" y1="267.8" x2="169.6" y2="259.1"/>
	<line class="st0" x1="161.8" y1="283.3" x2="160.6" y2="282.7"/>
	<line class="st0" x1="181.6" y1="283.3" x2="182.7" y2="282.7"/>
	<line class="st0" x1="181.6" y1="257.9" x2="182.7" y2="258.6"/>
	<line class="st0" x1="161.8" y1="257.9" x2="160.6" y2="258.6"/>
	<line class="st0" x1="156.1" y1="276.3" x2="156.1" y2="265"/>
	<line class="st0" x1="187.3" y1="276.3" x2="187.3" y2="265"/>
	<path class="st0" d="M442.4,121.2c5.5,3.2,14.3,3.2,19.8,0"/>
	<path class="st0" d="M436.7,114.2c0,5,7,9,15.6,9s15.6-4,15.6-9"/>
	<path class="st0" d="M462.2,107.4c5.5-3.2,5.5-8.3,0-11.5s-14.3-3.2-19.8,0s-5.5,8.3,0,11.5S456.8,110.5,462.2,107.4"/>
	<path class="st0" d="M441.3,96.5c-6.1,3.5-6.1,9.2,0,12.8s15.9,3.5,22,0s6.1-9.2,0-12.8"/>
	<polyline class="st0" points="444.4,100.4 444.6,100.4 444.8,100.4 445,100.4 445.1,100.4 445.3,100.3 445.6,100.3 445.7,100.3 
		445.9,100.2 446,100.1 446.2,100.1 446.4,100 446.6,100 446.8,99.9 446.9,99.8 447.1,99.7 447.2,99.6 447.4,99.5 447.6,99.4 
		447.8,99.3 448,99.2 448.1,99.1 448.3,98.9 448.4,98.8 448.6,98.6 448.8,98.5 449,98.3 449.2,98.1 449.3,97.9 449.6,97.7 
		449.8,97.5 449.9,97.3 450.2,97.1 	"/>
	<path class="st0" d="M450.2,97.1c-2.8,0.4-5,1.7-5.8,3.3"/>
	<path class="st0" d="M444.4,100.4c-0.8,1.6,0,3.4,2.1,4.6"/>
	<path class="st0" d="M458.1,98.3c-2.1-1.2-5.1-1.7-7.9-1.2"/>
	<path class="st0" d="M460.2,102.8c0.8-1.6,0-3.4-2.1-4.6"/>
	<path class="st0" d="M454.4,106.2c2.8-0.4,5-1.7,5.8-3.3"/>
	<path class="st0" d="M446.5,104.9c2.1,1.2,5.1,1.7,7.9,1.2"/>
	<polyline class="st0" points="457.6,105.2 457.8,105.1 457.9,105 458.1,104.9 458.2,104.8 458.4,104.6 458.5,104.5 458.7,104.4 
		458.8,104.2 459,104.1 459.2,103.9 459.3,103.8 459.5,103.6 459.7,103.4 459.8,103.3 460,103.1 460.2,102.8 460.1,102.8 460,102.8 
		460,102.7 459.9,102.7 459.8,102.5 459.7,102.5 459.7,102.4 459.6,102.3 459.5,102.2 459.5,102.1 459.4,102.1 459.4,101.9 
		459.3,101.8 459.2,101.7 459.2,101.6 459.1,101.5 459.1,101.3 459,101.2 458.9,101 458.9,100.9 458.8,100.7 458.8,100.6 
		458.7,100.4 458.6,100.2 458.6,100 458.5,99.8 458.4,99.5 458.3,99.3 458.3,99.1 458.2,98.8 458.2,98.6 458,98.3 457.8,98.3 
		457.5,98.4 457.3,98.5 457,98.5 456.7,98.6 456.5,98.6 456.2,98.6 456,98.6 455.8,98.6 455.5,98.6 455.3,98.6 455,98.6 454.8,98.6 
		454.6,98.6 454.3,98.6 454.1,98.6 453.9,98.5 453.7,98.5 453.4,98.5 453.2,98.4 452.9,98.3 452.7,98.2 452.5,98.2 452.2,98 452,98 
		451.7,97.9 451.5,97.7 451.3,97.6 451,97.5 450.7,97.4 450.4,97.2 450.2,97.1 	"/>
	<polyline class="st0" points="444.4,100.4 444.4,100.7 444.5,100.9 444.6,101.2 444.7,101.5 444.7,101.6 444.8,101.9 444.8,102.1 
		444.9,102.3 445,102.5 445.1,102.7 445.1,102.8 445.2,103 445.3,103.1 445.3,103.3 445.4,103.4 445.4,103.6 445.5,103.7 
		445.6,103.9 445.6,104 445.7,104 445.7,104.2 445.8,104.3 445.9,104.3 445.9,104.5 446,104.5 446,104.6 446.1,104.7 446.2,104.8 
		446.3,104.8 446.3,104.9 446.4,104.9 446.5,104.9 	"/>
	<polyline class="st0" points="453.7,106.3 450.2,105.7 449.6,106.1 	"/>
	<line class="st0" x1="458" y1="104.9" x2="458" y2="98.3"/>
	<line class="st0" x1="450.2" y1="105.7" x2="450.2" y2="97.1"/>
	<line class="st0" x1="442.3" y1="121.3" x2="441.2" y2="120.6"/>
	<line class="st0" x1="462.2" y1="121.3" x2="463.3" y2="120.6"/>
	<line class="st0" x1="462.2" y1="95.9" x2="463.3" y2="96.5"/>
	<line class="st0" x1="442.3" y1="95.9" x2="441.2" y2="96.5"/>
	<line class="st0" x1="467.9" y1="102.9" x2="467.9" y2="114.2"/>
	<line class="st0" x1="436.7" y1="102.9" x2="436.7" y2="114.2"/>
	<polyline class="st0" points="177.9,305.3 177.7,305.5 177.4,305.8 177.1,306 176.8,306.2 176.6,306.4 176.3,306.7 176,307 
		175.7,307.2 	"/>
	<polyline class="st0" points="187.8,309.2 187.4,309.7 187,310 186.5,310.3 186.2,310.7 185.8,311 185.4,311.3 185,311.6 
		184.6,311.9 184.3,312.1 183.9,312.4 183.5,312.7 183.2,312.9 182.8,313.1 182.5,313.4 182.1,313.6 181.7,313.8 181.4,314 
		181.1,314.2 180.7,314.3 180.4,314.5 180,314.7 179.6,314.9 179.3,315.1 178.9,315.2 178.5,315.4 178.1,315.5 177.8,315.6 
		177.4,315.8 176.9,315.9 176.6,316 176.2,316.1 175.7,316.3 	"/>
	<polyline class="st0" points="175,307.3 174.5,307.1 174.1,307 173.6,306.8 173.2,306.7 172.8,306.5 172.4,306.4 172,306.2 
		171.6,306.1 171.2,306 170.8,305.9 170.4,305.8 170,305.7 169.6,305.6 169.3,305.5 168.9,305.4 168.5,305.3 	"/>
	<polyline class="st0" points="175,316.4 174.4,316.4 173.8,316.4 173.3,316.4 172.7,316.5 172.2,316.5 171.7,316.5 171.1,316.5 
		170.6,316.5 170.1,316.4 169.6,316.4 169.1,316.4 168.7,316.3 168.2,316.3 167.7,316.3 167.2,316.2 166.7,316.1 166.2,316 
		165.7,316 165.2,315.8 164.8,315.7 164.3,315.7 163.8,315.5 163.3,315.4 162.8,315.2 162.3,315.1 161.8,314.9 161.2,314.8 
		160.7,314.6 160.1,314.4 159.6,314.2 159,314 158.5,313.8 	"/>
	<polyline class="st0" points="157.9,313.5 157.7,313.3 157.6,313.1 157.4,312.8 157.3,312.7 157.1,312.4 157,312.2 156.8,312 
		156.7,311.8 156.6,311.5 156.5,311.3 156.4,311 156.2,310.8 156.1,310.6 155.9,310.3 155.8,310 155.7,309.7 155.6,309.5 
		155.5,309.2 155.3,309 155.2,308.7 155.1,308.4 155,308.2 154.9,307.9 154.7,307.6 154.6,307.3 154.5,306.9 154.4,306.6 
		154.3,306.2 154.1,305.9 154,305.5 153.9,305.2 153.7,304.8 	"/>
	<polyline class="st0" points="175.7,307.2 175.6,307.3 175.6,307.3 175.4,307.3 175.4,307.4 175.3,307.4 175.1,307.4 175.1,307.3 
		175,307.3 	"/>
	<polyline class="st0" points="187.8,309.2 187.9,309.2 187.9,309.2 187.9,309.1 188,309.1 188,309 188,309 188,308.9 188,308.9 	
		"/>
	<polyline class="st0" points="175,316.4 175.1,316.3 175.1,316.3 175.3,316.3 175.4,316.3 175.4,316.3 175.6,316.3 175.6,316.3 
		175.7,316.3 	"/>
	<polyline class="st0" points="157.9,313.5 158,313.6 158,313.6 158.1,313.6 158.2,313.7 158.3,313.7 158.3,313.7 158.5,313.8 	"/>
	<line class="st0" x1="188" y1="308.9" x2="188" y2="304.6"/>
	<polyline class="st0" points="448.4,154.2 448.9,154.3 449.3,154.3 449.7,154.3 450.1,154.4 450.5,154.4 451,154.4 451.4,154.4 
		451.9,154.4 452.3,154.4 452.8,154.4 453.2,154.4 453.7,154.4 454.1,154.4 454.6,154.4 455.1,154.3 455.6,154.3 	"/>
	<polyline class="st0" points="456.4,154.2 456.8,154.1 457.2,154 457.6,153.8 458,153.7 458.4,153.5 458.8,153.4 459.1,153.3 
		459.5,153.1 459.9,153 460.3,152.8 460.6,152.6 461,152.5 461.3,152.3 461.7,152.1 462,151.9 462.4,151.7 462.7,151.5 463.1,151.3 
		463.4,151.1 463.8,150.8 464.2,150.6 464.5,150.4 464.9,150.1 465.2,149.8 465.6,149.5 466,149.2 466.4,148.9 466.8,148.6 
		467.2,148.3 467.6,148 468,147.6 468.4,147.2 	"/>
	<polyline class="st0" points="467.4,138.4 467.6,138.4 467.9,138.3 468.2,138.2 468.4,138.1 	"/>
	<polyline class="st0" points="468.4,138.1 468.5,138.1 468.5,138.1 468.6,138.1 468.7,138 468.7,137.9 468.7,137.9 468.7,137.8 
		468.7,137.7 468.5,137.2 468.3,136.7 468.1,136.3 468,135.8 467.8,135.4 467.7,135 467.5,134.6 467.4,134.2 	"/>
	<polyline class="st0" points="456.4,154.2 456.2,154.2 456.2,154.2 456.1,154.3 456,154.3 455.9,154.3 455.8,154.3 455.7,154.3 
		455.6,154.3 	"/>
	<polyline class="st0" points="468.7,137.9 468.7,146.8 468.7,146.9 468.7,146.9 468.6,146.9 468.6,147 468.5,147.1 468.5,147.1 
		468.5,147.1 468.4,147.2 	"/>
</g>
</svg>
