<?xml version="1.0" encoding="UTF-8"?><svg id="Layer_2" xmlns="http://www.w3.org/2000/svg" viewBox="0 0 141.46 96.36"><defs><style>.cls-1{fill:none;stroke:#fff;stroke-linecap:round;stroke-linejoin:round;stroke-width:1.44px;}</style></defs><g id="Layer_2-2"><line class="cls-1" x1="43.55" y1="49.28" x2="74.71" y2="31.29"/><polyline class="cls-1" points="44.54 49.84 74.71 32.42 74.71 31.29"/><polyline class="cls-1" points="74.71 31.29 90.59 40.45 59.44 58.44 43.55 49.28"/><line class="cls-1" x1="74.71" y1="32.42" x2="89.61" y2="41.01"/><line class="cls-1" x1="27.37" y1="64.2" x2="35.91" y2="69.13"/><path class="cls-1" d="m35.92,69.13c.36.21.71.3,1.02.29"/><path class="cls-1" d="m25.5,59.45c-.36.56-.34,1.49.04,2.47s1.08,1.83,1.84,2.27"/><polyline class="cls-1" points="109.06 38.6 106.61 40.01 106.15 39.75 108.6 38.33 109.06 38.6 112.88 48 112.88 49.02"/><polyline class="cls-1" points="106.61 40.01 110.43 49.41 110.43 50.43 106.15 47.96 106.15 39.75"/><line class="cls-1" x1="112.88" y1="49.02" x2="110.43" y2="50.43"/><line class="cls-1" x1="110.43" y1="49.41" x2="112.88" y2="48"/><line class="cls-1" x1="129.37" y1="34.56" x2="126.61" y2="36.15"/><polyline class="cls-1" points="127.69 40.65 125.24 42.06 120.81 39.5 111.58 44.83"/><line class="cls-1" x1="106.15" y1="47.96" x2="95.09" y2="54.34"/><polyline class="cls-1" points="96.39 58.55 93.94 59.95 89.66 57.49 78.6 63.87"/><polyline class="cls-1" points="79.9 68.07 77.45 69.48 73.17 67.01 64.32 72.13"/><polyline class="cls-1" points="65.38 76.63 62.93 78.03 58.51 75.48 54.67 77.69"/><line class="cls-1" x1="45.68" y1="77.94" x2="37.76" y2="73.35"/><polyline class="cls-1" points="37.76 72.22 22.84 63.63 21.87 64.2 12.09 58.55"/><line class="cls-1" x1="12.09" y1="47.96" x2="7.81" y2="50.43"/><polyline class="cls-1" points="140.36 33.45 140.36 35.97 54.85 85.35 45.07 85.35 1.1 59.95 1.1 57.1"/><line class="cls-1" x1="134.01" y1="26.66" x2="129.37" y2="23.98"/><polyline class="cls-1" points="96.39 58.55 96.39 57.52 93.94 58.93 93.94 59.95"/><polyline class="cls-1" points="96.39 57.52 92.57 48.13 92.11 47.85"/><polyline class="cls-1" points="92.57 48.13 90.12 49.53 93.94 58.93"/><polyline class="cls-1" points="90.12 49.53 89.66 49.26 92.11 47.85"/><line class="cls-1" x1="89.66" y1="57.49" x2="89.66" y2="49.26"/><polyline class="cls-1" points="120.81 39.5 120.81 30.68 61.49 64.94"/><polyline class="cls-1" points="73.17 67.01 73.17 58.78 75.62 57.38"/><polyline class="cls-1" points="73.17 58.78 73.63 59.06 77.45 68.45 77.45 69.48"/><polyline class="cls-1" points="79.9 68.07 79.9 67.05 77.45 68.45"/><polyline class="cls-1" points="79.9 67.05 76.08 57.65 75.62 57.38"/><line class="cls-1" x1="76.08" y1="57.65" x2="73.63" y2="59.06"/><polyline class="cls-1" points="127.69 40.65 127.69 38.84 125.24 40.25 125.24 42.06"/><polyline class="cls-1" points="127.69 38.84 122.51 25.78 83.68 3.35"/><polyline class="cls-1" points="79.79 6.75 81.23 4.76 120.08 27.19 125.24 40.25"/><polyline class="cls-1" points="120.81 30.68 119.59 27.5 81.73 5.64"/><line class="cls-1" x1="81.23" y1="4.76" x2="83.68" y2="3.35"/><line class="cls-1" x1="120.08" y1="27.19" x2="122.51" y2="25.78"/><polyline class="cls-1" points="123.78 28.97 129.37 25.75 129.37 34.56"/><polyline class="cls-1" points="122.53 25.8 127.63 22.86 129.37 25.75"/><line class="cls-1" x1="119.59" y1="27.5" x2="60.25" y2="61.78"/><polyline class="cls-1" points="84.69 3.92 89.77 .99 93.23 .99 127.63 20.87 127.63 22.86"/><line class="cls-1" x1="22.38" y1="39.9" x2="81.73" y2="5.64"/><polyline class="cls-1" points="21.38 39.31 60.23 61.75 65.38 74.82 65.38 76.63"/><polyline class="cls-1" points="21.38 39.31 18.95 40.74 17.48 42.73"/><polyline class="cls-1" points="60.23 61.75 57.78 63.17 18.95 40.74"/><polyline class="cls-1" points="65.38 74.82 62.93 76.22 57.78 63.17"/><line class="cls-1" x1="62.93" y1="78.03" x2="62.93" y2="76.22"/><polyline class="cls-1" points="58.51 75.48 58.51 66.66 57.3 63.48 19.42 41.62"/><polyline class="cls-1" points="52.4 76.17 52.4 70.19 58.51 66.66"/><polyline class="cls-1" points="57.3 63.48 51.69 66.72 52.4 70.19"/><polyline class="cls-1" points="51.69 66.72 48.23 66.72 13.83 46.85 13.83 44.85 19.42 41.62"/><line class="cls-1" x1="13.83" y1="44.85" x2="12.09" y2="46.9"/><polyline class="cls-1" points="127.63 20.87 129.37 22.91 129.37 25.75"/><polyline class="cls-1" points="48.23 66.72 47.52 70.19 52.4 70.19"/><polyline class="cls-1" points="13.83 46.85 12.09 49.73 47.52 70.19"/><polyline class="cls-1" points="12.09 46.9 12.09 49.73 12.09 58.55"/><line class="cls-1" x1="140.36" y1="35.97" x2="140.36" y2="38.8"/><polyline class="cls-1" points="140.36 38.8 54.85 88.16 54.85 85.35"/><polyline class="cls-1" points="45.07 85.35 45.07 88.16 54.85 88.16"/><polyline class="cls-1" points="45.07 88.16 1.1 62.77 1.1 59.95"/><line class="cls-1" x1="47.52" y1="70.19" x2="47.52" y2="76.41"/><polyline class="cls-1" points="21.87 64.2 21.87 58.55 23.1 57.83 36.53 65.6 37.76 67.71 37.76 73.35"/><line class="cls-1" x1="22.84" y1="63.63" x2="22.84" y2="57.98"/><line class="cls-1" x1="26.52" y1="64.69" x2="35.07" y2="69.62"/><path class="cls-1" d="m26.02,59.52c-1.05-.31-1.75.44-1.61,1.76s1.04,2.78,2.12,3.4"/><path class="cls-1" d="m35.08,69.62c1.08.62,1.99.22,2.12-.95.13-1.17-.56-2.72-1.62-3.63"/><line class="cls-1" x1="43.87" y1="92.4" x2="39.59" y2="87.82"/><polyline class="cls-1" points="45.07 91.64 45.07 91.69 43.87 92.4 41.42 91 37.14 86.41"/><polyline class="cls-1" points="140.36 41.62 54.85 91 45.07 91 1.1 65.6"/><line class="cls-1" x1="29.81" y1="84.29" x2="25.53" y2="79.7"/><polyline class="cls-1" points="31.03 82.88 31.03 83.59 29.81 84.29 27.37 82.88 23.1 78.29"/><line class="cls-1" x1="16.99" y1="74.76" x2="16.99" y2="75.48"/><polyline class="cls-1" points="16.99 75.48 15.77 76.19 11.49 71.6"/><line class="cls-1" x1="13.32" y1="74.76" x2="9.04" y2="70.19"/><line class="cls-1" x1="8.43" y1="71.95" x2="8.43" y2="69.83"/><line class="cls-1" x1="46.3" y1="93.81" x2="43.87" y2="92.4"/><line class="cls-1" x1="41.42" y1="91" x2="29.81" y2="84.29"/><line class="cls-1" x1="27.37" y1="82.88" x2="15.77" y2="76.19"/><line class="cls-1" x1="13.32" y1="74.76" x2="8.43" y2="71.95"/><line class="cls-1" x1="46.3" y1="93.61" x2="46.3" y2="93.81"/><line class="cls-1" x1="15.77" y1="76.19" x2="13.32" y2="74.76"/><polyline class="cls-1" points="80.5 76.19 80.5 78.29 53.63 93.81 53.63 93.37"/><path class="cls-1" d="m25.37,59.69c.13-.07.26-.15.39-.23"/><line class="cls-1" x1="26.15" y1="59.61" x2="25.25" y2="60.12"/><polyline class="cls-1" points="46.3 93.81 47.01 95.64 10.15 74.36 8.43 71.95"/><line class="cls-1" x1="53.63" y1="93.81" x2="52.86" y2="93.81"/><line class="cls-1" x1="46.88" y1="93.81" x2="46.3" y2="93.81"/><polyline class="cls-1" points="47.01 95.64 52.91 95.64 53.63 93.81"/><polyline class="cls-1" points="52.91 95.64 78.78 80.7 80.5 78.29"/><polyline class="cls-1" points="140.36 38.8 54.85 88.16 45.07 88.16 1.1 62.77 1.1 65.6"/><line class="cls-1" x1="45.07" y1="88.16" x2="45.07" y2="91"/><line class="cls-1" x1="54.85" y1="91" x2="54.85" y2="88.16"/><line class="cls-1" x1="140.36" y1="38.8" x2="140.36" y2="41.62"/><path class="cls-1" d="m2.7,58.57c1.67.97,4.37.97,6.04,0"/><path class="cls-1" d="m.98,56.42c0,1.52,2.12,2.75,4.74,2.75s4.74-1.23,4.74-2.75"/><path class="cls-1" d="m8.74,54.33c1.67-.97,1.67-2.54,0-3.5s-4.37-.97-6.04,0-1.67,2.54,0,3.5,4.37.97,6.04,0"/><path class="cls-1" d="m2.37,51.01c-1.85,1.08-1.85,2.82,0,3.89s4.86,1.08,6.71,0,1.85-2.82,0-3.89"/><polyline class="cls-1" points="8.12 52.95 8.07 53.02 8.01 53.08 7.96 53.13 7.9 53.19 7.87 53.24 7.81 53.3 7.76 53.34 7.72 53.39 7.67 53.43 7.63 53.46 7.58 53.5 7.54 53.54 7.48 53.57 7.45 53.61 7.39 53.65 7.36 53.66"/><path class="cls-1" d="m6.37,53.96c.86-.13,1.53-.52,1.76-1.01"/><path class="cls-1" d="m8.13,52.95c.23-.5-.02-1.02-.65-1.39"/><path class="cls-1" d="m3.96,53.59c.63.36,1.55.5,2.41.37"/><path class="cls-1" d="m3.31,52.21c-.23.5.02,1.02.65,1.39"/><path class="cls-1" d="m5.07,51.19c-.86.13-1.53.52-1.76,1.01"/><path class="cls-1" d="m7.48,51.56c-.63-.36-1.55-.5-2.41-.37"/><polyline class="cls-1" points="8.12 52.95 8.11 52.95 8.07 52.93 8.05 52.92 8.03 52.9 8.01 52.88 8 52.86 7.98 52.82 7.96 52.81 7.94 52.77 7.9 52.75 7.89 52.71 7.87 52.68 7.85 52.66 7.83 52.62 7.81 52.59 7.8 52.53 7.78 52.49 7.76 52.46 7.74 52.4 7.72 52.37 7.7 52.31 7.69 52.26 7.67 52.2 7.65 52.15 7.63 52.09 7.61 52.02 7.59 51.95 7.56 51.89 7.54 51.82 7.52 51.73 7.5 51.65 7.48 51.56 7.39 51.6 7.3 51.62 7.23 51.64 7.16 51.64 7.06 51.65 6.99 51.67 6.92 51.67 6.84 51.67 6.77 51.69 6.7 51.69 6.63 51.69 6.55 51.69 6.48 51.67 6.41 51.67 6.35 51.67 6.28 51.65 6.2 51.64 6.13 51.64 6.06 51.62 5.99 51.6 5.91 51.58 5.86 51.56 5.78 51.53 5.71 51.51 5.64 51.47 5.55 51.43 5.47 51.42 5.4 51.38 5.33 51.32 5.24 51.29 5.16 51.25 5.07 51.2 5 51.27 4.94 51.34 4.89 51.4 4.83 51.45 4.76 51.53 4.71 51.58 4.65 51.62 4.6 51.67 4.54 51.73 4.5 51.76 4.45 51.8 4.39 51.84 4.34 51.87 4.28 51.91 4.23 51.95 4.19 51.98 4.14 52 4.08 52.04 4.03 52.06 3.97 52.07 3.94 52.11 3.88 52.13 3.83 52.15 3.77 52.15 3.72 52.17 3.66 52.18 3.61 52.18 3.55 52.2 3.48 52.2 3.43 52.22 3.37 52.22 3.3 52.22 3.33 52.29 3.35 52.39 3.37 52.46 3.39 52.53 3.41 52.6 3.44 52.66 3.46 52.73 3.48 52.79 3.5 52.84 3.52 52.9 3.54 52.95 3.55 53.01 3.57 53.06 3.59 53.1 3.61 53.13 3.63 53.19 3.65 53.23 3.66 53.26 3.68 53.3 3.7 53.34 3.72 53.35 3.74 53.39 3.75 53.43 3.77 53.45 3.79 53.48 3.83 53.5 3.85 53.52 3.86 53.54 3.88 53.56 3.9 53.57 3.92 53.59 3.96 53.61"/><polyline class="cls-1" points="6.13 54.01 5.07 53.85 4.89 53.94"/><line class="cls-1" x1="7.48" y1="53.59" x2="7.48" y2="51.56"/><line class="cls-1" x1="5.07" y1="53.85" x2="5.07" y2="51.2"/><line class="cls-1" x1="2.69" y1="58.56" x2="2.35" y2="58.36"/><line class="cls-1" x1="8.75" y1="58.56" x2="9.07" y2="58.36"/><line class="cls-1" x1="8.75" y1="50.85" x2="9.07" y2="51.03"/><line class="cls-1" x1="2.69" y1="50.85" x2="2.35" y2="51.03"/><line class="cls-1" x1="10.46" y1="52.97" x2="10.46" y2="56.43"/><line class="cls-1" x1=".96" y1="52.97" x2=".96" y2="56.43"/><polyline class="cls-1" points="1.1 62 1.03 62.07 .96 62.15 .87 62.22 .79 62.29"/><polyline class="cls-1" points=".72 62.42 .77 62.48 .83 62.55 .88 62.62 .92 62.7 .98 62.77 1.01 62.82 1.07 62.9 1.1 62.99"/><polyline class="cls-1" points=".72 65.18 .77 65.31 .83 65.46 .87 65.58 .92 65.71 .96 65.84 .99 65.95 1.05 66.06 1.09 66.17 1.12 66.28 1.16 66.39 1.21 66.48 1.25 66.59 1.29 66.68 1.32 66.77 1.36 66.86 1.4 66.94 1.45 67.03 1.49 67.1 1.52 67.19 1.56 67.27 1.6 67.34 1.63 67.41 1.69 67.49 1.73 67.56 1.76 67.63 1.8 67.69 1.85 67.76 1.89 67.83 1.94 67.89 1.98 67.96 2.04 68.02 2.07 68.09"/><polyline class="cls-1" points="2.24 68.18 2.42 68.25 2.6 68.31 2.77 68.36 2.93 68.44 3.1 68.47 3.26 68.53 3.41 68.58 3.57 68.62 3.72 68.66 3.86 68.71 4.03 68.75 4.18 68.77 4.32 68.8 4.47 68.84 4.61 68.86 4.76 68.88 4.89 68.89 5.02 68.91 5.16 68.93 5.29 68.95 5.42 68.97 5.55 68.97 5.69 68.99 5.82 68.99 5.95 68.99 6.09 69 6.22 69 6.37 69 6.52 69 6.66 68.99 6.81 68.99 6.95 68.99"/><polyline class="cls-1" points=".79 62.29 .77 62.31 .76 62.33 .74 62.35 .72 62.37 .72 62.39 .72 62.4 .72 62.42"/><polyline class="cls-1" points=".72 65.18 .72 65.15 .72 65.13"/><polyline class="cls-1" points="2.24 68.18 2.22 68.16 2.18 68.16 2.16 68.14 2.15 68.13 2.13 68.11 2.11 68.11 2.09 68.09 2.07 68.09"/><line class="cls-1" x1=".72" y1="62.39" x2=".72" y2="65.13"/><path class="cls-1" d="m94.92,1.95c-.37-.37-.9-.68-1.55-.9"/><path class="cls-1" d="m93.1.97c-1.13-.32-2.46-.34-3.61-.04s-2.02.88-2.37,1.58"/><path class="cls-1" d="m87.87,1.63c-.54.31-.94.69-1.17,1.12"/><path class="cls-1" d="m95.3,2.17c-.2-.2-.44-.37-.72-.53"/><line class="cls-1" x1="94.23" y1="1.47" x2="94.58" y2="1.65"/><line class="cls-1" x1="88.2" y1="1.47" x2="87.85" y2="1.65"/><path class="cls-1" d="m47.24,84.27c1.67.97,4.37.97,6.04,0"/><path class="cls-1" d="m45.51,82.14c0,1.52,2.12,2.75,4.74,2.75s4.74-1.23,4.74-2.75"/><path class="cls-1" d="m47.24,76.55c-1.67.97-1.67,2.54,0,3.5,1.67.97,4.37.97,6.04,0s1.67-2.54,0-3.5-4.37-.97-6.04,0"/><path class="cls-1" d="m46.9,76.74c-1.85,1.08-1.85,2.82,0,3.89s4.86,1.08,6.71,0,1.85-2.82,0-3.89"/><polyline class="cls-1" points="49.61 76.92 49.53 76.99 49.48 77.05 49.42 77.12 49.35 77.18 49.29 77.23 49.24 77.28 49.19 77.34 49.13 77.39 49.08 77.43 49.02 77.49 48.97 77.52 48.93 77.56 48.87 77.6 48.82 77.63 48.76 77.67 48.71 77.69 48.67 77.72 48.62 77.74 48.56 77.78 48.51 77.8 48.45 77.82 48.4 77.83 48.36 77.85 48.31 77.87 48.25 77.89 48.2 77.89 48.14 77.91 48.07 77.92 48.02 77.92 47.96 77.92 47.91 77.92 47.83 77.92"/><path class="cls-1" d="m49.61,76.91c-.86.13-1.53.52-1.76,1.01"/><path class="cls-1" d="m52.02,77.28c-.63-.36-1.55-.5-2.41-.37"/><path class="cls-1" d="m52.66,78.67c.23-.5-.02-1.02-.65-1.39"/><path class="cls-1" d="m50.9,79.69c.86-.13,1.53-.52,1.76-1.01"/><path class="cls-1" d="m48.49,79.31c.63.36,1.55.5,2.41.37"/><path class="cls-1" d="m47.84,77.93c-.23.5.02,1.02.65,1.39"/><polyline class="cls-1" points="52 77.28 52.04 77.38 52.06 77.45 52.07 77.52 52.09 77.6 52.11 77.67 52.13 77.74 52.17 77.8 52.18 77.87 52.2 77.92 52.22 77.98 52.24 78.03 52.26 78.07 52.27 78.13 52.29 78.16 52.31 78.22 52.33 78.25 52.35 78.29 52.37 78.33 52.38 78.36 52.4 78.4 52.42 78.44 52.44 78.46 52.46 78.49 52.48 78.51 52.49 78.55 52.51 78.56 52.55 78.58 52.57 78.6 52.59 78.64 52.6 78.64 52.62 78.66 52.66 78.67 52.6 78.75 52.55 78.8 52.49 78.86 52.44 78.91 52.38 78.97 52.35 79 52.29 79.06 52.24 79.09 52.2 79.15 52.15 79.19 52.11 79.22 52.06 79.26 52.02 79.3 51.96 79.33 51.93 79.35 51.89 79.39"/><polyline class="cls-1" points="48.47 79.31 48.45 79.31 48.44 79.3 48.42 79.28 48.4 79.26 48.36 79.24 48.34 79.2 48.33 79.19 48.31 79.17 48.29 79.13 48.27 79.11 48.25 79.08 48.23 79.04 48.22 79 48.2 78.99 48.18 78.93 48.16 78.89 48.14 78.86 48.12 78.82 48.11 78.77 48.09 78.73 48.07 78.67 48.05 78.62 48.03 78.56 48 78.51 47.98 78.46 47.96 78.38 47.94 78.31 47.92 78.25 47.91 78.18 47.89 78.09 47.85 78.02 47.83 77.92"/><polyline class="cls-1" points="49.61 76.92 49.68 76.96 49.77 77.01 49.84 77.05 49.93 77.08 50.01 77.12 50.08 77.16 50.15 77.19 50.23 77.21 50.3 77.25 50.37 77.27 50.45 77.28 50.52 77.32 50.59 77.34 50.67 77.34 50.74 77.36 50.79 77.38 50.87 77.38 50.94 77.39 51.01 77.39 51.09 77.39 51.16 77.39 51.23 77.39 51.31 77.39 51.38 77.39 51.45 77.39 51.53 77.38 51.6 77.38 51.67 77.36 51.76 77.34 51.84 77.32 51.93 77.3 52 77.28"/><polyline class="cls-1" points="49.42 79.66 49.61 79.55 50.67 79.72"/><line class="cls-1" x1="52" y1="79.3" x2="52" y2="77.28"/><line class="cls-1" x1="49.61" y1="79.55" x2="49.61" y2="76.92"/><line class="cls-1" x1="47.23" y1="84.29" x2="46.88" y2="84.09"/><line class="cls-1" x1="53.26" y1="84.29" x2="53.61" y2="84.09"/><line class="cls-1" x1="53.26" y1="76.55" x2="53.61" y2="76.75"/><line class="cls-1" x1="47.23" y1="76.55" x2="46.88" y2="76.75"/><line class="cls-1" x1="45.49" y1="82.15" x2="45.49" y2="78.69"/><line class="cls-1" x1="55" y1="82.15" x2="55" y2="78.69"/><path class="cls-1" d="m132.74,34.9c1.67.97,4.37.97,6.04,0"/><path class="cls-1" d="m131.01,32.76c0,1.52,2.12,2.75,4.74,2.75s4.74-1.23,4.74-2.75"/><path class="cls-1" d="m138.78,30.67c1.67-.97,1.67-2.54,0-3.5s-4.37-.97-6.04,0-1.67,2.54,0,3.5,4.37.97,6.04,0"/><path class="cls-1" d="m132.4,27.36c-1.85,1.08-1.85,2.82,0,3.89s4.86,1.08,6.71,0,1.85-2.82,0-3.89"/><polyline class="cls-1" points="133.34 28.55 133.41 28.55 133.46 28.55 133.52 28.55 133.57 28.55 133.63 28.53 133.7 28.53 133.76 28.51 133.81 28.49 133.85 28.47 133.9 28.45 133.96 28.44 134.01 28.42 134.07 28.4 134.12 28.36 134.18 28.34 134.21 28.31 134.27 28.29 134.32 28.25 134.38 28.22 134.43 28.18 134.47 28.14 134.53 28.11 134.58 28.05 134.63 28.02 134.69 27.96 134.74 27.91 134.8 27.85 134.85 27.8 134.93 27.74 134.98 27.67 135.04 27.61 135.11 27.54"/><path class="cls-1" d="m135.11,27.53c-.86.13-1.53.52-1.76,1.01"/><path class="cls-1" d="m133.35,28.55c-.23.5.02,1.02.65,1.39"/><path class="cls-1" d="m137.52,27.91c-.63-.36-1.55-.5-2.41-.37"/><path class="cls-1" d="m138.17,29.29c.23-.5-.02-1.02-.65-1.39"/><path class="cls-1" d="m136.41,30.31c.86-.13,1.53-.52,1.76-1.01"/><path class="cls-1" d="m133.99,29.93c.63.36,1.55.5,2.41.37"/><polyline class="cls-1" points="137.38 30.01 137.43 29.97 137.47 29.95 137.52 29.92 137.56 29.88 137.61 29.84 137.65 29.81 137.71 29.77 137.74 29.72 137.8 29.68 137.85 29.62 137.89 29.59 137.94 29.53 138 29.48 138.05 29.42 138.11 29.37 138.16 29.3 138.13 29.28 138.11 29.28 138.09 29.26 138.07 29.24 138.05 29.2 138.02 29.19 138 29.17 137.98 29.13 137.96 29.11 137.94 29.08 137.93 29.06 137.91 29.02 137.89 28.98 137.87 28.95 137.85 28.91 137.83 28.87 137.82 28.84 137.8 28.78 137.78 28.75 137.76 28.69 137.74 28.66 137.72 28.6 137.71 28.55 137.69 28.49 137.67 28.42 137.63 28.36 137.61 28.29 137.6 28.22 137.58 28.14 137.56 28.07 137.54 28 137.51 27.91 137.43 27.92 137.34 27.94 137.27 27.96 137.18 27.98 137.1 28 137.03 28 136.96 28.02 136.88 28.02 136.81 28.02 136.74 28.02 136.66 28.02 136.59 28.02 136.52 28.02 136.44 28.02 136.37 28 136.3 28 136.24 27.98 136.17 27.96 136.1 27.96 136.02 27.94 135.95 27.91 135.88 27.89 135.8 27.87 135.73 27.83 135.66 27.81 135.59 27.78 135.51 27.74 135.44 27.7 135.35 27.67 135.27 27.63 135.18 27.58 135.11 27.54"/><polyline class="cls-1" points="133.34 28.55 133.36 28.64 133.39 28.71 133.41 28.8 133.43 28.87 133.45 28.93 133.46 29 133.48 29.08 133.5 29.13 133.52 29.19 133.56 29.24 133.57 29.3 133.59 29.35 133.61 29.39 133.63 29.44 133.65 29.48 133.67 29.51 133.68 29.57 133.7 29.61 133.72 29.64 133.74 29.66 133.76 29.7 133.78 29.73 133.79 29.75 133.81 29.79 133.83 29.81 133.85 29.83 133.87 29.86 133.9 29.88 133.92 29.9 133.94 29.92 133.96 29.93 133.98 29.93"/><polyline class="cls-1" points="136.17 30.34 135.11 30.17 134.93 30.28"/><line class="cls-1" x1="137.51" y1="29.92" x2="137.51" y2="27.91"/><line class="cls-1" x1="135.11" y1="30.17" x2="135.11" y2="27.54"/><line class="cls-1" x1="132.72" y1="34.91" x2="132.39" y2="34.71"/><line class="cls-1" x1="138.77" y1="34.91" x2="139.11" y2="34.71"/><line class="cls-1" x1="138.77" y1="27.17" x2="139.11" y2="27.38"/><line class="cls-1" x1="132.72" y1="27.17" x2="132.39" y2="27.38"/><line class="cls-1" x1="140.5" y1="29.31" x2="140.5" y2="32.77"/><line class="cls-1" x1="131" y1="29.31" x2="131" y2="32.77"/><polyline class="cls-1" points="52.15 91 52.07 91.05 51.98 91.12 51.91 91.2 51.82 91.25 51.74 91.33 51.65 91.4 51.56 91.49 51.49 91.56"/><polyline class="cls-1" points="55.16 92.18 55.04 92.31 54.91 92.42 54.78 92.51 54.67 92.62 54.54 92.71 54.43 92.81 54.3 92.9 54.19 92.99 54.08 93.06 53.98 93.15 53.87 93.23 53.76 93.3 53.65 93.37 53.54 93.45 53.43 93.5 53.32 93.57 53.23 93.63 53.12 93.68 53.01 93.74 52.9 93.79 52.79 93.85 52.68 93.9 52.57 93.96 52.46 93.99 52.33 94.05 52.22 94.09 52.11 94.12 51.98 94.18 51.85 94.21 51.74 94.25 51.62 94.29 51.49 94.32"/><polyline class="cls-1" points="51.25 91.6 51.12 91.54 50.98 91.49 50.85 91.45 50.72 91.4 50.59 91.36 50.47 91.31 50.34 91.27 50.23 91.23 50.1 91.2 49.99 91.16 49.86 91.12 49.75 91.11 49.62 91.07 49.51 91.05 49.4 91.01 49.29 91"/><polyline class="cls-1" points="51.25 94.36 51.07 94.36 50.9 94.38 50.74 94.38 50.57 94.4 50.41 94.4 50.25 94.4 50.08 94.4 49.93 94.4 49.77 94.38 49.62 94.38 49.48 94.36 49.33 94.34 49.19 94.34 49.04 94.32 48.87 94.31 48.73 94.27 48.58 94.25 48.44 94.23 48.29 94.2 48.14 94.16 48 94.14 47.85 94.1 47.69 94.07 47.54 94.01 47.39 93.98 47.23 93.92 47.06 93.88 46.9 93.83 46.74 93.76 46.57 93.7 46.39 93.65 46.22 93.57"/><polyline class="cls-1" points="46.06 93.48 46 93.41 45.95 93.35 45.91 93.28 45.88 93.23 45.82 93.15 45.78 93.1 45.73 93.03 45.69 92.95 45.66 92.88 45.62 92.81 45.58 92.73 45.53 92.66 45.49 92.59 45.46 92.5 45.42 92.42 45.38 92.33 45.35 92.26 45.31 92.18 45.27 92.11 45.24 92.02 45.2 91.93 45.16 91.86 45.13 91.76 45.09 91.67 45.05 91.58 45.02 91.47 44.98 91.38 44.94 91.27 44.91 91.16 44.87 91.05 44.83 90.94 44.78 90.83"/><polyline class="cls-1" points="51.49 91.56 51.45 91.58 51.43 91.6 51.4 91.6 51.38 91.62 51.34 91.62 51.31 91.62 51.29 91.6 51.25 91.6"/><polyline class="cls-1" points="55.16 92.18 55.18 92.17 55.2 92.17 55.2 92.15 55.22 92.13 55.22 92.11 55.24 92.11 55.24 92.09 55.24 92.08"/><polyline class="cls-1" points="51.25 94.36 51.29 94.34 51.31 94.34 51.34 94.34 51.38 94.34 51.4 94.34 51.43 94.32 51.45 94.32 51.49 94.32"/><polyline class="cls-1" points="46.06 93.48 46.08 93.5 46.1 93.52 46.11 93.52 46.13 93.54 46.17 93.56 46.19 93.56 46.22 93.57"/><line class="cls-1" x1="55.24" y1="92.08" x2="55.24" y2="90.78"/><polyline class="cls-1" points="134.58 44.94 134.71 44.96 134.84 44.98 134.96 44.98 135.09 45 135.22 45 135.35 45 135.48 45.02 135.62 45.02 135.75 45.02 135.9 45.02 136.02 45.02 136.17 45 136.32 45 136.46 45 136.61 44.98 136.76 44.98"/><polyline class="cls-1" points="136.99 44.94 137.12 44.91 137.25 44.87 137.36 44.83 137.49 44.8 137.61 44.74 137.72 44.71 137.83 44.67 137.96 44.62 138.07 44.58 138.18 44.52 138.29 44.47 138.4 44.41 138.51 44.36 138.62 44.3 138.71 44.25 138.82 44.19 138.93 44.12 139.04 44.07 139.15 43.99 139.26 43.92 139.37 43.85 139.48 43.77 139.59 43.68 139.7 43.61 139.81 43.52 139.94 43.43 140.05 43.34 140.17 43.24 140.28 43.13 140.41 43.04 140.54 42.93 140.67 42.81"/><polyline class="cls-1" points="140.36 40.14 140.43 40.12 140.5 40.1 140.59 40.08 140.67 40.04"/><polyline class="cls-1" points="140.67 40.04 140.69 40.04 140.7 40.04 140.72 40.03 140.74 40.01 140.74 39.99 140.74 39.97 140.74 39.95 140.74 39.92 140.69 39.77 140.63 39.62 140.58 39.48 140.54 39.35 140.48 39.22 140.45 39.09 140.39 38.97 140.36 38.86"/><polyline class="cls-1" points="136.99 44.94 136.96 44.94 136.94 44.94 136.9 44.96 136.88 44.96 136.85 44.96 136.81 44.96 136.79 44.96 136.76 44.98"/><polyline class="cls-1" points="140.74 39.97 140.74 42.7 140.74 42.71 140.74 42.73 140.72 42.73 140.72 42.75 140.7 42.77 140.7 42.79 140.69 42.79 140.67 42.81"/></g></svg>